<svg aria-hidden="true" style="position: absolute; width: 0; height: 0; overflow: hidden;" version="1.1" xmlns="http://www.w3.org/2000/svg" xmlns:xlink="http://www.w3.org/1999/xlink">
<defs>
<symbol id="icon-Logo" viewBox="0 0 24 32">
<path fill="var(--background)" style="fill: var(--background, #fff)" d="M6.663 30.054c0.489-2.543 0.905-5.22 1.494-7.897 0.29-1.401-0.063-1.999-1.63-1.892s-3.313 0.053-4.979 0c-1.666-0.054-1.965-0.892-1.005-2.088 4.726-5.836 9.506-11.6 14.268-17.347 0.534-0.651 1.15-1.115 2.028-0.625s0.697 1.098 0.552 1.829c-0.525 2.677-0.96 5.354-1.539 7.978-0.299 1.356 0.091 1.838 1.503 1.785 1.417-0.071 2.837-0.071 4.255 0 0.806 0 1.865-0.419 2.281 0.678s-0.462 1.562-0.905 2.213c-1.811 2.231-3.645 4.459-5.504 6.684-2.722 3.248-5.423 6.484-8.102 9.709-0.525 0.633-1.114 1.142-2.010 0.821s-0.706-1.080-0.706-1.847z"></path>
</symbol>

<symbol id="icon-plus" viewBox="0 0 14 14" >
<path d="M7 2.9165V11.0832" stroke="white" stroke-linecap="round" stroke-linejoin="round"/>
<path d="M2.91663 7H11.0833" stroke="white" stroke-linecap="round" stroke-linejoin="round"/>
</symbol>

<symbol id="icon-Logo" viewBox="0 0 24 32">
  <path fill="var(--background)" style="fill: var(--background, #fff)" d="M6.663 30.054c0.489-2.543 0.905-5.22 1.494-7.897 0.29-1.401-0.063-1.999-1.63-1.892s-3.313 0.053-4.979 0c-1.666-0.054-1.965-0.892-1.005-2.088 4.726-5.836 9.506-11.6 14.268-17.347 0.534-0.651 1.15-1.115 2.028-0.625s0.697 1.098 0.552 1.829c-0.525 2.677-0.96 5.354-1.539 7.978-0.299 1.356 0.091 1.838 1.503 1.785 1.417-0.071 2.837-0.071 4.255 0 0.806 0 1.865-0.419 2.281 0.678s-0.462 1.562-0.905 2.213c-1.811 2.231-3.645 4.459-5.504 6.684-2.722 3.248-5.423 6.484-8.102 9.709-0.525 0.633-1.114 1.142-2.010 0.821s-0.706-1.080-0.706-1.847z"></path>
  </symbol>
  <symbol id="pop" viewBox="0 0 32 32">
    <path fill="none" stroke="inherit" style="stroke: var(--color1)" stroke-linejoin="round" stroke-linecap="round" stroke-miterlimit="4" stroke-width="2.5" d="M4 16h24"></path>
    <path fill="none" stroke="inherit" style="stroke: var(--color1)" stroke-linejoin="round" stroke-linecap="round" stroke-miterlimit="4" stroke-width="2.5" d="M4 8h24"></path>
    <path fill="none" stroke="inherit" style="stroke: var(--color1)" stroke-linejoin="round" stroke-linecap="round" stroke-miterlimit="4" stroke-width="2.5" d="M4 24h24"></path>
    </symbol>
  <symbol id="str" width="16" height="17" viewBox="0 0 16 17" fill="none">
    <path d="M4 6.5L8 10.5L12 6.5" stroke="var(--text-heder)" stroke-opacity="0.8" stroke-width="1.5" stroke-linecap="round" stroke-linejoin="round"/>
  </symbol>
  <symbol id="x" width="18" height="18" viewBox="0 0 18 18" fill="none">
    <path d="M13.5 4.5L4.5 13.5" stroke="var(--text-heder)" stroke-width="1.5" stroke-linecap="round" stroke-linejoin="round"/>
    <path d="M4.5 4.5L13.5 13.5" stroke="var(--text-heder)" stroke-width="1.5" stroke-linecap="round" stroke-linejoin="round"/>
  </symbol>
  <symbol id="add" width="24" height="24" viewBox="0 0 24 24" fill="none">
    <path d="M18 0H6C2.68629 0 0 2.68629 0 6V18C0 21.3137 2.68629 24 6 24H18C21.3137 24 24 21.3137 24 18V6C24 2.68629 21.3137 0 18 0Z" fill="var(--base-green-violet)"/>
  </symbol>
  <symbol id="add+" width="10" height="10" viewBox="0 0 10 10" fill="none">
    <path d="M5 2.0835V7.91683" stroke="#161616" stroke-linecap="round" stroke-linejoin="round"/>
    <path d="M2.0835 5H7.91683" stroke="#161616" stroke-linecap="round" stroke-linejoin="round"/>
  </symbol>
  <symbol id="eye" width="18" height="18" viewBox="0 0 18 18" fill="none">
  <path d="M0.75 9C0.75 9 3.75 3 9 3C14.25 3 17.25 9 17.25 9C17.25 9 14.25 15 9 15C3.75 15 0.75 9 0.75 9Z" stroke="var(--text)" stroke-width="1.3" stroke-linecap="round" stroke-linejoin="round"/>
  <path d="M9 11.25C10.2426 11.25 11.25 10.2426 11.25 9C11.25 7.75736 10.2426 6.75 9 6.75C7.75736 6.75 6.75 7.75736 6.75 9C6.75 10.2426 7.75736 11.25 9 11.25Z" stroke="var(--text)" stroke-width="1.3" stroke-linecap="round" stroke-linejoin="round"/>
  </symbol>

<symbol id="icon-close" viewBox="0 0 18 18">
<path d="M13.5 4.5L4.5 13.5" stroke="white" stroke-width="1.5" stroke-linecap="round" stroke-linejoin="round"/>
<path d="M4.5 4.5L13.5 13.5" stroke="white" stroke-width="1.5" stroke-linecap="round" stroke-linejoin="round"/>
</symbol>
<symbol id="icon-arrow-circle-broken-right" viewBox="0 0 30 32">
  <path fill="none" stroke-linejoin="round" stroke-linecap="round" stroke-miterlimit="4" stroke-width="2.4471" d="M4.189 9.726c2.17-3.751 6.225-6.274 10.87-6.274 6.931 0 12.549 5.618 12.549 12.549s-5.618 12.549-12.549 12.549c-4.645 0-8.7-2.523-10.87-6.274"></path>
  <path fill="none" stroke-linejoin="round" stroke-linecap="round" stroke-miterlimit="4" stroke-width="2.4471" d="M15.059 21.020l5.020-5.020-5.020-5.020"></path>
  <path fill="none" stroke-linejoin="round" stroke-linecap="round" stroke-miterlimit="4" stroke-width="2.4471" d="M2.51 16h17.569"></path>
  </symbol>
<symbol id="icon-trash" viewBox="0 0 16 16">
<path d="M6 2H10"  stroke-opacity="0.5" stroke-width="1.3" stroke-linecap="round" stroke-linejoin="round"/>
<path d="M2 4H14" stroke-opacity="0.5" stroke-width="1.3" stroke-linecap="round" stroke-linejoin="round"/>
<path d="M3.33337 4L3.73396 10.0089C3.80834 11.1245 3.84553 11.6823 4.02783 12.1304C4.35882 12.9441 5.02976 13.5718 5.86361 13.8479C6.32289 14 6.88194 14 8.00004 14V14C9.11814 14 9.67719 14 10.1365 13.8479C10.9703 13.5718 11.6413 12.9441 11.9723 12.1304C12.1546 11.6823 12.1917 11.1245 12.2661 10.0089L12.6667 4" stroke-opacity="0.5" stroke-width="1.3" stroke-linecap="round" stroke-linejoin="round"/>
</symbol>

<symbol id="icon-bell" viewBox="0 0 16 16">
<path d="M6.23609 14.0002C6.70618 14.4151 7.32368 14.6668 7.99997 14.6668C8.67627 14.6668 9.29377 14.4151 9.76386 14.0002M12 5.3335C12 4.27263 11.5785 3.25521 10.8284 2.50507C10.0783 1.75492 9.06084 1.3335 7.99997 1.3335C6.93911 1.3335 5.92169 1.75492 5.17155 2.50507C4.4214 3.25521 3.99997 4.27263 3.99997 5.3335C3.99997 7.39362 3.48029 8.80413 2.89975 9.7371C2.41006 10.5241 2.16521 10.9176 2.17419 11.0273C2.18413 11.1489 2.20988 11.1952 2.30782 11.2679C2.39628 11.3335 2.79503 11.3335 3.59254 11.3335H12.4074C13.2049 11.3335 13.6037 11.3335 13.6921 11.2679C13.7901 11.1952 13.8158 11.1489 13.8258 11.0273C13.8347 10.9176 13.5899 10.5241 13.1002 9.7371C12.5197 8.80413 12 7.39362 12 5.3335Z" stroke-width="1.5" stroke-linecap="round" stroke-linejoin="round"/>
</symbol>
  <symbol id="taskpro_logo" viewBox="0 0 32 32">
  <path fill="#161616" style="fill: var(--color1, #161616)" d="M26.667 0h-21.333c-2.946 0-5.333 2.388-5.333 5.333v21.333c0 2.946 2.388 5.333 5.333 5.333h21.333c2.946 0 5.333-2.388 5.333-5.333v-21.333c0-2.946-2.388-5.333-5.333-5.333z"></path>
  <path fill="" d="M13.331 23.027c0.244-1.272 0.453-2.61 0.747-3.949 0.145-0.701-0.032-0.999-0.815-0.946s-1.657 0.027-2.49 0c-0.833-0.027-0.982-0.446-0.502-1.044 2.363-2.918 4.753-5.8 7.134-8.674 0.267-0.326 0.575-0.558 1.014-0.312s0.349 0.549 0.276 0.915c-0.263 1.339-0.48 2.677-0.77 3.989-0.149 0.678 0.045 0.919 0.751 0.892 0.709-0.036 1.419-0.036 2.127 0 0.403 0 0.932-0.21 1.141 0.339s-0.231 0.781-0.453 1.107c-0.905 1.115-1.823 2.229-2.752 3.342-1.361 1.624-2.711 3.242-4.051 4.854-0.263 0.317-0.557 0.571-1.005 0.41s-0.353-0.54-0.353-0.924z"></path>
</symbol>
<symbol id="icon-filter" viewBox="0 0 37 32">
  <path stroke='inherit' stroke-linejoin="round" stroke-linecap="round" stroke-miterlimit="4" stroke-width="3.4286" d="M33.523 2.286h-30.476l12.19 14.415v9.966l6.095 3.048v-13.013l12.19-14.415z"></path>
  </symbol>
<symbol id="eye" viewBox="0 0 32 32">
<path stroke-linejoin="round" stroke-linecap="round" stroke-miterlimit="4" stroke-width="2.3111" d="M1.333 16s5.333-10.667 14.667-10.667 14.667 10.667 14.667 10.667-5.333 10.667-14.667 10.667-14.667-10.667-14.667-10.667z"></path>
<path stroke-linejoin="round" stroke-linecap="round" stroke-miterlimit="4" stroke-width="2.3111" d="M16 20c2.209 0 4-1.791 4-4s-1.791-4-4-4v0c-2.209 0-4 1.791-4 4s1.791 4 4 4v0z"></path>
</symbol>
<symbol id="eye-off" viewBox="0 0 24 24">
<path d="M10.128 5.214c0.651-0.152 1.296-0.221 1.86-0.214 1.758 0 3.309 0.559 4.658 1.393 1.119 0.692 2.089 1.567 2.894 2.448 0.644 0.705 1.175 1.405 1.585 2.001 0.327 0.475 0.57 0.874 0.733 1.155-0.546 0.953-1.16 1.821-1.778 2.542-0.359 0.419-0.311 1.051 0.108 1.41s1.051 0.311 1.41-0.108c0.818-0.954 1.611-2.112 2.283-3.37 0.148-0.279 0.163-0.618 0.013-0.919 0 0-0.396-0.789-1.12-1.843-0.451-0.656-1.038-1.432-1.757-2.218-0.894-0.979-2.004-1.987-3.319-2.8-1.595-0.985-3.506-1.691-5.686-1.691-0.734-0.009-1.54 0.079-2.34 0.266-0.538 0.126-0.872 0.664-0.746 1.202s0.664 0.872 1.202 0.746zM10.027 11.442l2.531 2.531c-0.182 0.061-0.372 0.094-0.563 0.101-0.513 0.018-1.030-0.159-1.434-0.536s-0.617-0.88-0.635-1.393c-0.008-0.238 0.025-0.476 0.101-0.704zM5.983 7.397l2.553 2.553c-0.434 0.691-0.636 1.484-0.608 2.266 0.036 1.022 0.463 2.033 1.271 2.785s1.846 1.107 2.868 1.071c0.692-0.024 1.379-0.228 1.984-0.608l2.322 2.322c-1.378 0.799-2.895 1.196-4.384 1.214-1.734 0-3.285-0.559-4.634-1.393-1.119-0.692-2.089-1.567-2.894-2.448-0.644-0.705-1.175-1.405-1.585-2.001-0.326-0.475-0.57-0.873-0.732-1.154 1.050-1.822 2.376-3.379 3.841-4.607zM0.293 1.707l4.271 4.271c-1.731 1.479-3.269 3.358-4.445 5.549-0.148 0.279-0.164 0.619-0.013 0.92 0 0 0.396 0.789 1.12 1.843 0.451 0.656 1.038 1.432 1.757 2.218 0.894 0.979 2.004 1.987 3.319 2.8 1.595 0.986 3.506 1.692 5.71 1.692 1.993-0.024 4.019-0.601 5.815-1.759l4.466 4.466c0.391 0.391 1.024 0.391 1.414 0s0.391-1.024 0-1.414l-8.876-8.876c-0.002-0.002-0.005-0.005-0.007-0.007l-4.209-4.21c-0.008-0.007-0.016-0.016-0.024-0.024l-8.884-8.883c-0.391-0.391-1.024-0.391-1.414 0s-0.391 1.024 0 1.414z"></path>
</symbol>
<symbol id="help" viewBox="0 0 32 32">
<path stroke-linejoin="round" stroke-linecap="round" stroke-miterlimit="4" stroke-width="2.88" d="M16 29.333c7.364 0 13.333-5.97 13.333-13.333s-5.97-13.333-13.333-13.333c-7.364 0-13.333 5.97-13.333 13.333s5.97 13.333 13.333 13.333z"></path>
<path stroke-linejoin="round" stroke-linecap="round" stroke-miterlimit="4" stroke-width="2.88" d="M12.12 12c0.313-0.891 0.932-1.643 1.747-2.121s1.772-0.654 2.703-0.494c0.931 0.16 1.776 0.644 2.384 1.366s0.941 1.637 0.94 2.582c0 2.667-4 4-4 4"></path>
<path stroke-linejoin="round" stroke-linecap="round" stroke-miterlimit="4" stroke-width="2.88" d="M16 22.666h0.020"></path>
</symbol>
<symbol id="trash" viewBox="0 0 32 32">
<path stroke-linejoin="round" stroke-linecap="round" stroke-miterlimit="4" stroke-width="2.6" d="M12 4h8"></path>
<path stroke-linejoin="round" stroke-linecap="round" stroke-miterlimit="4" stroke-width="2.6" d="M4 8h24"></path>
<path stroke-linejoin="round" stroke-linecap="round" stroke-miterlimit="4" stroke-width="2.6" d="M6.667 8l0.801 12.018c0.149 2.231 0.223 3.347 0.588 4.243 0.662 1.627 2.004 2.883 3.672 3.435 0.919 0.304 2.037 0.304 4.273 0.304v0c2.236 0 3.354 0 4.273-0.304 1.668-0.552 3.010-1.808 3.672-3.435 0.365-0.896 0.439-2.012 0.588-4.243l0.801-12.018"></path>
</symbol>
<symbol id="pencil" viewBox="0 0 32 32">
<path stroke-linejoin="round" stroke-linecap="round" stroke-miterlimit="4" stroke-width="2.6" d="M3.333 28.667l7.399-2.846c0.473-0.182 0.71-0.273 0.931-0.392 0.197-0.106 0.384-0.227 0.56-0.364 0.198-0.154 0.378-0.333 0.736-0.692l15.040-15.040c1.473-1.473 1.473-3.861 0-5.333s-3.861-1.473-5.333 0l-15.040 15.040c-0.359 0.359-0.538 0.538-0.692 0.736-0.137 0.176-0.259 0.364-0.364 0.56-0.119 0.221-0.21 0.458-0.392 0.931l-2.846 7.399zM3.333 28.667l2.744-7.135c0.196-0.511 0.295-0.766 0.463-0.883 0.147-0.102 0.329-0.141 0.505-0.107 0.201 0.038 0.395 0.232 0.782 0.619l3.012 3.012c0.387 0.387 0.58 0.58 0.619 0.782 0.034 0.176-0.005 0.358-0.107 0.505-0.117 0.168-0.372 0.267-0.883 0.463l-7.135 2.744z"></path>
</symbol>
<symbol id="logout" viewBox="0 0 32 32">
<path stroke-linejoin="round" stroke-linecap="round" stroke-miterlimit="4" stroke-width="1.5" d="M11.867 10.080c0.413-4.8 2.88-6.76 8.28-6.76h0.173c5.96 0 8.347 2.387 8.347 8.347v8.693c0 5.96-2.387 8.347-8.347 8.347h-0.173c-5.36 0-7.827-1.933-8.267-6.653"></path>
<path stroke-linejoin="round" stroke-linecap="round" stroke-miterlimit="4" stroke-width="1.5" d="M2.667 16h17.173"></path>
<path stroke-linejoin="round" stroke-linecap="round" stroke-miterlimit="4" stroke-width="1.5" d="M16.867 11.533l4.467 4.467-4.467 4.467"></path>
</symbol>
<symbol id="close_icon" viewBox="0 0 32 32">
<path stroke-linejoin="round" stroke-linecap="round" stroke-miterlimit="4" stroke-width="2.6667" d="M24 8l-16 16M8 8l16 16"></path>
</symbol>
</defs>
</svg>
