<svg>
<symbol id="arrow-circle-broken-right" viewBox="0 0 16 16" fill="none" xmlns="http://www.w3.org/2000/svg">
<path d="M2.2251 4.66671C3.3778 2.67404 5.53228 1.33337 7.99988 1.33337C11.6818 1.33337 14.6666 4.31814 14.6666 8.00004C14.6666 11.6819 11.6818 14.6667 7.99988 14.6667C5.53228 14.6667 3.3778 13.326 2.2251 11.3334" stroke="white" stroke-opacity="0.5" stroke-width="1.3" stroke-linecap="round" stroke-linejoin="round"/>
</symbol>
<symbol id="bell"  viewBox="0 0 16 16" fill="none" xmlns="http://www.w3.org/2000/svg">
<path d="M6.23597 14C6.70606 14.4149 7.32355 14.6667 7.99985 14.6667C8.67615 14.6667 9.29365 14.4149 9.76373 14M11.9999 5.33337C11.9999 4.27251 11.5784 3.25509 10.8283 2.50495C10.0781 1.7548 9.06072 1.33337 7.99985 1.33337C6.93898 1.33337 5.92157 1.7548 5.17142 2.50495C4.42128 3.25509 3.99985 4.27251 3.99985 5.33337C3.99985 7.3935 3.48016 8.80401 2.89963 9.73698C2.40993 10.524 2.16509 10.9174 2.17407 11.0272C2.18401 11.1488 2.20976 11.1951 2.3077 11.2678C2.39616 11.3334 2.79491 11.3334 3.59242 11.3334H12.4073C13.2048 11.3334 13.6035 11.3334 13.692 11.2678C13.7899 11.1951 13.8157 11.1488 13.8256 11.0272C13.8346 10.9174 13.5898 10.524 13.1001 9.73698C12.5195 8.80401 11.9999 7.3935 11.9999 5.33337Z" stroke="#BEDBB0" stroke-width="1.5" stroke-linecap="round" stroke-linejoin="round"/>
</symbol>
<symbol id="colors"  viewBox="0 0 18 18" fill="none" xmlns="http://www.w3.org/2000/svg">
<g clip-path="url(#clip0_4566_2430)">
<path d="M8.99999 15.3542C9.79613 16.0667 10.8475 16.5 12 16.5C14.4853 16.5 16.5 14.4853 16.5 12C16.5 9.92481 15.0953 8.17769 13.1849 7.65763M4.81513 7.65762C2.9047 8.17768 1.5 9.9248 1.5 12C1.5 14.4853 3.51472 16.5 6 16.5C8.48528 16.5 10.5 14.4853 10.5 12C10.5 11.4146 10.3882 10.8554 10.1849 10.3424M13.5 6C13.5 8.48528 11.4853 10.5 9 10.5C6.51472 10.5 4.5 8.48528 4.5 6C4.5 3.51472 6.51472 1.5 9 1.5C11.4853 1.5 13.5 3.51472 13.5 6Z" stroke="white" stroke-opacity="0.5" stroke-width="1.5" stroke-linecap="round" stroke-linejoin="round"/>
</g>
</symbol>
<symbol id="container"  viewBox="0 0 18 18" fill="none" xmlns="http://www.w3.org/2000/svg">
<path d="M15.375 5.45825L8.99998 8.99992M8.99998 8.99992L2.62498 5.45825M8.99998 8.99992L9 16.1249M15.75 12.0439V5.95603C15.75 5.69904 15.75 5.57055 15.7121 5.45595C15.6786 5.35457 15.6239 5.26151 15.5515 5.18299C15.4697 5.09424 15.3574 5.03184 15.1328 4.90704L9.58277 1.8237C9.37007 1.70553 9.26372 1.64645 9.15109 1.62329C9.05141 1.60278 8.9486 1.60278 8.84891 1.62329C8.73628 1.64645 8.62993 1.70553 8.41723 1.8237L2.86723 4.90704C2.64259 5.03184 2.53026 5.09424 2.44847 5.18299C2.37612 5.26151 2.32136 5.35457 2.28786 5.45595C2.25 5.57055 2.25 5.69904 2.25 5.95603V12.0439C2.25 12.3008 2.25 12.4293 2.28786 12.5439C2.32136 12.6453 2.37612 12.7384 2.44847 12.8169C2.53026 12.9056 2.64259 12.968 2.86723 13.0928L8.41723 16.1762C8.62993 16.2943 8.73628 16.3534 8.84891 16.3766C8.9486 16.3971 9.05141 16.3971 9.15109 16.3766C9.26372 16.3534 9.37007 16.2943 9.58277 16.1762L15.1328 13.0928C15.3574 12.968 15.4697 12.9056 15.5515 12.8169C15.6239 12.7384 15.6786 12.6453 15.7121 12.5439C15.75 12.4293 15.75 12.3008 15.75 12.0439Z" stroke="white" stroke-opacity="0.5" stroke-width="1.5" stroke-linecap="round" stroke-linejoin="round"/>
</symbol>
<symbol id= "filter"  viewBox="0 0 16 16" fill="none" xmlns="http://www.w3.org/2000/svg">
<path d="M14.6668 2H1.3335L6.66683 8.30667V12.6667L9.3335 14V8.30667L14.6668 2Z" />
</symbol>
<symbol id="hexagon"  viewBox="0 0 18 18" fill="none" xmlns="http://www.w3.org/2000/svg">
<path d="M8.41723 1.8237C8.62993 1.70553 8.73628 1.64645 8.84891 1.62329C8.94859 1.60278 9.05141 1.60278 9.15109 1.62329C9.26372 1.64645 9.37007 1.70553 9.58277 1.8237L15.1328 4.90704C15.3574 5.03184 15.4697 5.09424 15.5515 5.18299C15.6239 5.26151 15.6786 5.35457 15.7121 5.45595C15.75 5.57055 15.75 5.69904 15.75 5.95603V12.0439C15.75 12.3008 15.75 12.4293 15.7121 12.5439C15.6786 12.6453 15.6239 12.7384 15.5515 12.8169C15.4697 12.9056 15.3574 12.968 15.1328 13.0928L9.58277 16.1762C9.37007 16.2943 9.26372 16.3534 9.15109 16.3766C9.05141 16.3971 8.94859 16.3971 8.84891 16.3766C8.73628 16.3534 8.62993 16.2943 8.41723 16.1762L2.86723 13.0928C2.64259 12.968 2.53026 12.9056 2.44847 12.8169C2.37612 12.7384 2.32136 12.6453 2.28786 12.5439C2.25 12.4293 2.25 12.3008 2.25 12.0439V5.95602C2.25 5.69904 2.25 5.57055 2.28786 5.45595C2.32136 5.35457 2.37612 5.26151 2.44847 5.18299C2.53026 5.09424 2.64259 5.03184 2.86723 4.90704L8.41723 1.8237Z" stroke="white" stroke-opacity="0.5" stroke-width="1.5" stroke-linecap="round" stroke-linejoin="round"/>
</symbol>
<symbol id="icon"  viewBox="0 0 32 32" fill="none" xmlns="http://www.w3.org/2000/svg">
<path d="M24 0H8C3.58172 0 0 3.58172 0 8V24C0 28.4183 3.58172 32 8 32H24C28.4183 32 32 28.4183 32 24V8C32 3.58172 28.4183 0 24 0Z" fill="#1F1F1F"/>
<path d="M13.3314 23.0269C13.5759 21.7553 13.7841 20.4168 14.0783 19.0782C14.2232 18.3777 14.0466 18.0788 13.2635 18.1324C12.4804 18.1859 11.6068 18.1591 10.7739 18.1324C9.94105 18.1056 9.79167 17.6862 10.2715 17.0883C12.6343 14.1703 15.0243 11.2881 17.4053 8.41472C17.6724 8.08902 17.9802 7.85701 18.4193 8.1024C18.8583 8.3478 18.7678 8.6512 18.6954 9.01706C18.4328 10.3556 18.2156 11.6941 17.9259 13.0058C17.7765 13.684 17.9711 13.9249 18.6773 13.8982C19.386 13.8625 20.096 13.8625 20.8047 13.8982C21.2076 13.8982 21.7372 13.6885 21.9454 14.2373C22.1536 14.7861 21.7146 15.0181 21.4928 15.3438C20.5875 16.4592 19.6701 17.5731 18.7406 18.6856C17.3797 20.3097 16.0292 21.9278 14.6894 23.54C14.4268 23.8567 14.1326 24.1111 13.6845 23.9504C13.2364 23.7898 13.3314 23.4106 13.3314 23.0269Z" fill="white"/>
</symbol>
<symbol id="lightning"  viewBox="0 0 18 18" fill="none" xmlns="http://www.w3.org/2000/svg">
<path d="M10.6871 1.5H6.37047C6.23586 1.5 6.16855 1.5 6.10913 1.5205C6.05658 1.53862 6.00872 1.5682 5.96901 1.60709C5.92411 1.65107 5.89401 1.71127 5.83381 1.83167L2.68381 8.13167C2.54005 8.41919 2.46817 8.56295 2.48543 8.67981C2.50051 8.78185 2.55695 8.87318 2.64148 8.9323C2.73828 9 2.89901 9 3.22046 9H7.87465L5.62464 16.5L14.7695 7.01648C15.078 6.69653 15.2323 6.53655 15.2413 6.39966C15.2491 6.28084 15.2 6.16536 15.1091 6.08852C15.0043 6 14.782 6 14.3376 6H8.99965L10.6871 1.5Z" stroke="white" stroke-opacity="0.5" stroke-width="1.5" stroke-linecap="round" stroke-linejoin="round"/>
</symbol>
<symbol id="loading"  viewBox="0 0 18 18" fill="none" xmlns="http://www.w3.org/2000/svg">
<path d="M2.50519 12.7498C1.56607 11.1224 2.04355 9.04833 3.59847 7.99505L3.60013 7.99338C4.84923 7.14926 6.49331 7.17759 7.71325 8.06421L10.2873 9.93578C11.5064 10.8224 13.1505 10.8507 14.4004 10.0066L14.4021 10.0049C15.9578 8.95166 16.4361 6.87594 15.4953 5.25019M12.7515 15.4945C11.1241 16.4336 9.04999 15.9561 7.99671 14.4012L7.99505 14.3995C7.15093 13.1504 7.17926 11.5063 8.06588 10.2864L9.93744 7.71238C10.8241 6.49327 10.8524 4.84919 10.0083 3.59926L10.0049 3.59759C8.95166 2.04351 6.87594 1.56437 5.25019 2.50515M14.3029 3.69676C17.2319 6.62577 17.2319 11.3739 14.3029 14.3029C11.3739 17.2319 6.62577 17.2319 3.69676 14.3029C0.767747 11.3739 0.767747 6.62577 3.69676 3.69676C6.62577 0.767747 11.3739 0.767747 14.3029 3.69676Z" stroke="white" stroke-opacity="0.5" stroke-width="1.5" stroke-linecap="round" stroke-linejoin="round"/>
</symbol>
<symbol id="pencil" viewBox="0 0 16 16" fill="none" xmlns="http://www.w3.org/2000/svg">
<path d="M1.6665 14.3334L5.36602 12.9105C5.60264 12.8195 5.72096 12.774 5.83165 12.7146C5.92997 12.6618 6.0237 12.6009 6.11186 12.5324C6.21112 12.4554 6.30075 12.3658 6.48002 12.1865L13.9999 4.66671C14.7362 3.93033 14.7362 2.73642 13.9999 2.00004C13.2635 1.26366 12.0696 1.26366 11.3332 2.00004L3.81336 9.51985C3.63409 9.69912 3.54445 9.78876 3.46743 9.88801C3.39902 9.97617 3.33811 10.0699 3.28533 10.1682C3.22591 10.2789 3.1804 10.3972 3.08939 10.6339L1.6665 14.3334ZM1.6665 14.3334L3.03858 10.766C3.13677 10.5107 3.18586 10.3831 3.27006 10.3246C3.34365 10.2735 3.43471 10.2542 3.5227 10.271C3.62339 10.2902 3.72009 10.3869 3.91349 10.5803L5.41955 12.0864C5.61295 12.2798 5.70965 12.3765 5.72888 12.4772C5.74568 12.5652 5.72636 12.6562 5.67527 12.7298C5.6168 12.814 5.48916 12.8631 5.23388 12.9613L1.6665 14.3334Z" stroke="white" stroke-opacity="0.5" stroke-width="1.3" stroke-linecap="round" stroke-linejoin="round"/>
</symbol>
<symbol id="puzzle-piece"  viewBox="0 0 18 18" fill="none" xmlns="http://www.w3.org/2000/svg">
<path d="M9 1.5L11.7 4.2C13.5 -0.525 18.525 4.5 13.8 6.3L16.5 9L13.8 11.7C12 6.975 6.975 12 11.7 13.8L9 16.5L6.3 13.8C4.5 18.525 -0.525 13.5 4.2 11.7L1.5 9L4.2 6.3C6 11.025 11.025 6 6.3 4.2L9 1.5Z" stroke="white" stroke-opacity="0.5" stroke-width="1.5" stroke-linecap="round" stroke-linejoin="round"/>
</symbol>
<symbol id="star" viewBox="0 0 32 32">
<path d="M16 2.667l2.683 6.975c0.376 0.978 0.564 1.466 0.856 1.878 0.259 0.364 0.577 0.683 0.942 0.942 0.411 0.292 0.9 0.48 1.878 0.856l6.975 2.683-6.975 2.683c-0.978 0.376-1.466 0.564-1.878 0.856-0.364 0.259-0.683 0.577-0.942 0.942-0.292 0.411-0.48 0.9-0.856 1.878l-2.683 6.975-2.683-6.975c-0.376-0.978-0.564-1.466-0.856-1.878-0.259-0.364-0.578-0.683-0.942-0.942-0.411-0.292-0.9-0.48-1.878-0.856l-6.975-2.683 6.975-2.683c0.978-0.376 1.466-0.564 1.878-0.856 0.364-0.259 0.683-0.578 0.942-0.942 0.292-0.411 0.48-0.9 0.856-1.878l2.683-6.975z"></path>
</symbol>
<symbol id="trash" viewBox="0 0 32 32">
<path  d="M12 4h8"></path>
<path  d="M4 8h24"></path>
<path  d="M6.667 8l0.801 12.018c0.149 2.231 0.223 3.347 0.588 4.243 0.662 1.627 2.004 2.883 3.672 3.435 0.919 0.304 2.037 0.304 4.273 0.304v0c2.236 0 3.354 0 4.273-0.304 1.668-0.552 3.010-1.808 3.672-3.435 0.365-0.896 0.439-2.012 0.588-4.243l0.801-12.018"></path>
</symbol>
<symbol id="hover" viewBox="0 0 36 32">
<path  d="M5.333 0h24.889c2.946 0 5.333 2.388 5.333 5.333v21.333c0 2.946-2.388 5.333-5.333 5.333h-24.889c-2.946 0-5.333-2.388-5.333-5.333v-21.333c0-2.946 2.388-5.333 5.333-5.333z"></path>
<path  d="M17.778 10.815v10.37"></path>
<path  d="M12.592 16h10.37"></path>
</symbol>
</svg>
